<svg xmlns="http://www.w3.org/2000/svg" xmlns:xlink="http://www.w3.org/1999/xlink" width="500" zoomAndPan="magnify" viewBox="0 0 375 374.999991" height="500" preserveAspectRatio="xMidYMid meet" version="1.0"><defs><clipPath id="id1"><path d="M 107 64.359375 L 256.550781 64.359375 L 256.550781 173 L 107 173 Z M 107 64.359375 " clip-rule="nonzero"/></clipPath><clipPath id="id2"><path d="M 214 164 L 256.550781 164 L 256.550781 197 L 214 197 Z M 214 164 " clip-rule="nonzero"/></clipPath><clipPath id="id3"><path d="M 178 145 L 253 145 L 253 218.859375 L 178 218.859375 Z M 178 145 " clip-rule="nonzero"/></clipPath></defs><g clip-path="url(#id1)"><path fill="#304543" d="M 110.78125 119.9375 C 110.761719 120.042969 110.738281 120.144531 110.703125 120.246094 C 110.738281 120.144531 110.761719 120.042969 110.78125 119.9375 Z M 110.796875 119.8125 C 110.796875 120 110.820312 120.640625 111.042969 121.5 C 111.507812 123.242188 112.703125 124.816406 114.335938 125.8125 L 178.246094 164.761719 C 178.144531 164.125 178.09375 163.480469 178.09375 162.820312 C 178.09375 156.546875 180.808594 152.21875 187.164062 148.335938 L 248.007812 111.246094 C 248.808594 110.757812 248.894531 109.941406 248.894531 109.617188 C 248.894531 109.292969 248.808594 108.484375 248.007812 107.988281 L 183.386719 68.589844 L 118.085938 108.40625 C 112.78125 111.636719 110.808594 114.675781 110.808594 119.609375 C 110.808594 119.675781 110.804688 119.746094 110.796875 119.8125 Z M 186.460938 172.949219 C 185.121094 172.949219 183.828125 172.585938 182.632812 171.855469 C 182.390625 171.707031 182.15625 171.546875 181.933594 171.375 L 112.539062 129.085938 C 110.070312 127.585938 108.316406 125.246094 107.589844 122.515625 C 107.234375 121.152344 107.164062 120.222656 107.222656 119.589844 C 107.230469 113.324219 109.941406 109.003906 116.292969 105.125 L 182.488281 64.765625 C 183.042969 64.429688 183.722656 64.429688 184.277344 64.765625 L 249.796875 104.714844 C 251.480469 105.742188 252.480469 107.574219 252.480469 109.617188 C 252.480469 111.660156 251.480469 113.5 249.796875 114.519531 L 188.960938 151.617188 C 183.652344 154.855469 181.679688 157.886719 181.679688 162.820312 C 181.679688 165.054688 182.554688 167.117188 183.953125 168.246094 C 183.984375 168.269531 184.019531 168.292969 184.050781 168.324219 C 184.171875 168.414062 184.296875 168.496094 184.421875 168.578125 C 185.847656 169.445312 187.535156 169.335938 189.300781 168.257812 L 250.835938 130.738281 L 245.839844 127.300781 C 245.011719 126.734375 244.777344 125.558594 245.3125 124.683594 C 245.855469 123.808594 246.964844 123.5625 247.796875 124.136719 L 255.234375 129.253906 C 255.757812 129.609375 256.066406 130.230469 256.046875 130.886719 C 256.03125 131.546875 255.691406 132.148438 255.148438 132.472656 L 191.09375 171.535156 C 189.550781 172.476562 187.980469 172.949219 186.460938 172.949219 " fill-opacity="1" fill-rule="nonzero"/></g><g clip-path="url(#id2)"><path fill="#304543" d="M 216.410156 196.78125 C 215.789062 196.78125 215.183594 196.441406 214.855469 195.835938 C 214.359375 194.929688 214.65625 193.773438 215.511719 193.246094 L 250.835938 171.710938 L 245.839844 168.273438 C 245.011719 167.703125 244.777344 166.53125 245.3125 165.652344 C 245.855469 164.777344 246.964844 164.53125 247.796875 165.105469 L 255.234375 170.222656 C 255.757812 170.585938 256.066406 171.207031 256.046875 171.863281 C 256.03125 172.519531 255.691406 173.117188 255.148438 173.449219 L 217.300781 196.527344 C 217.015625 196.703125 216.710938 196.78125 216.410156 196.78125 " fill-opacity="1" fill-rule="nonzero"/></g><path fill="#304543" d="M 110.78125 160.914062 C 110.761719 161.015625 110.738281 161.117188 110.703125 161.214844 C 110.738281 161.117188 110.761719 161.015625 110.78125 160.914062 Z M 182.929688 212.660156 C 182.621094 212.660156 182.3125 212.578125 182.03125 212.40625 L 112.539062 170.058594 C 110.070312 168.550781 108.316406 166.21875 107.589844 163.480469 C 107.234375 162.121094 107.164062 161.195312 107.222656 160.5625 C 107.230469 154.3125 109.929688 149.988281 116.253906 146.125 L 119.265625 144.054688 C 120.097656 143.488281 121.207031 143.738281 121.75 144.609375 C 122.285156 145.492188 122.050781 146.660156 121.21875 147.234375 L 118.167969 149.324219 C 118.136719 149.34375 118.113281 149.355469 118.085938 149.375 C 112.78125 152.609375 110.808594 155.648438 110.808594 160.574219 C 110.808594 160.648438 110.804688 160.714844 110.796875 160.785156 C 110.796875 160.96875 110.820312 161.613281 111.042969 162.46875 C 111.507812 164.21875 112.703125 165.789062 114.335938 166.78125 L 183.828125 209.128906 C 184.683594 209.652344 184.976562 210.808594 184.476562 211.714844 C 184.152344 212.324219 183.542969 212.660156 182.929688 212.660156 " fill-opacity="1" fill-rule="nonzero"/><g clip-path="url(#id3)"><path fill="#304543" d="M 204.167969 218.859375 C 203.867188 218.859375 203.558594 218.773438 203.289062 218.613281 C 202.726562 218.28125 202.378906 217.648438 202.378906 216.964844 L 202.378906 205.710938 L 191.082031 212.511719 C 188.195312 214.269531 185.1875 214.386719 182.632812 212.824219 C 179.835938 211.117188 178.09375 207.65625 178.09375 203.792969 C 178.09375 197.515625 180.808594 193.1875 187.164062 189.3125 L 248.007812 152.214844 C 248.808594 151.726562 248.894531 150.917969 248.894531 150.589844 C 248.894531 150.261719 248.808594 149.453125 248.007812 148.964844 C 247.152344 148.4375 246.855469 147.28125 247.351562 146.378906 C 247.84375 145.472656 248.941406 145.164062 249.796875 145.683594 C 251.480469 146.707031 252.480469 148.542969 252.480469 150.589844 C 252.480469 152.636719 251.480469 154.46875 249.796875 155.492188 L 188.960938 192.589844 C 183.652344 195.820312 181.679688 198.859375 181.679688 203.792969 C 181.679688 206.269531 182.753906 208.53125 184.421875 209.550781 C 185.847656 210.417969 187.535156 210.308594 189.300781 209.230469 L 203.28125 200.8125 C 203.835938 200.476562 204.515625 200.484375 205.070312 200.820312 C 205.621094 201.15625 205.964844 201.785156 205.964844 202.453125 L 205.964844 213.632812 L 214.613281 208.15625 L 214.613281 194.886719 C 214.613281 192.265625 213.269531 189.824219 211.109375 188.519531 C 210.25 188.003906 209.953125 186.84375 210.441406 185.941406 C 210.929688 185.03125 212.027344 184.714844 212.882812 185.234375 C 216.160156 187.207031 218.199219 190.910156 218.199219 194.886719 L 218.199219 209.230469 C 218.199219 209.898438 217.867188 210.515625 217.324219 210.851562 L 205.089844 218.589844 C 204.808594 218.769531 204.488281 218.859375 204.167969 218.859375 " fill-opacity="1" fill-rule="nonzero"/></g><path fill="#304543" d="M 172.195312 140.882812 C 171.898438 140.882812 171.605469 140.804688 171.328125 140.644531 L 116.324219 108.417969 C 115.457031 107.910156 115.144531 106.761719 115.625 105.847656 C 116.101562 104.933594 117.191406 104.601562 118.058594 105.109375 L 173.0625 137.332031 C 173.929688 137.839844 174.242188 138.992188 173.761719 139.90625 C 173.4375 140.527344 172.820312 140.882812 172.195312 140.882812 " fill-opacity="1" fill-rule="nonzero"/><path fill="#0c9ea4" d="M 149.160156 96.011719 L 217.609375 96.011719 L 183.386719 75.144531 Z M 149.160156 96.011719 " fill-opacity="1" fill-rule="nonzero"/></svg>